<svg xmlns="http://www.w3.org/2000/svg" width="3840" height="2160" viewBox="0 0 3840 2160" font-family="Helvetica, Arial, sans-serif">
  <defs><marker id="arr" viewBox="0 0 10 10" refX="9" refY="5" markerWidth="7" markerHeight="7" orient="auto-start-reverse"><path d="M 0 0 L 10 5 L 0 10 z" fill="#475569"/></marker></defs>
  <rect width="3840" height="2160" fill="#f8fafc"/>

  <circle cx="180" cy="150" r="60" fill="#dc2626"/><text x="180" y="176" font-size="72" font-weight="bold" fill="#ffffff" text-anchor="middle">1</text>
  <text x="280" y="180" font-size="76" font-weight="bold" fill="#0f172a">Onboarding a New Grower</text>
  <text x="280" y="266" font-size="42" fill="#475569">From sales handshake to a live, isolated tenant — in minutes</text>
  <rect x="100" y="560" width="640" height="460" rx="22" fill="#ffffff" stroke="#2563eb" stroke-width="5"/>
  <rect x="100" y="560" width="640" height="80" rx="22" fill="#2563eb"/>
  <text x="420" y="614" font-size="33" font-weight="bold" fill="#ffffff" text-anchor="middle">Ops creates the LFG</text>
  <circle cx="100" cy="560" r="34" fill="#0f172a"/><text x="100" y="573" font-size="38" font-weight="bold" fill="#ffffff" text-anchor="middle">a</text>
  <text x="420" y="710" font-size="31" fill="#334155" text-anchor="middle">name · countries</text>
  <text x="420" y="762" font-size="31" fill="#334155" text-anchor="middle">CB org references</text>
  <text x="420" y="814" font-size="31" fill="#334155" text-anchor="middle">route slug requested</text>
  <line x1="740" y1="790" x2="838" y2="790" stroke="#475569" stroke-width="9" marker-end="url(#arr)"/>
  <rect x="850" y="560" width="640" height="460" rx="22" fill="#ffffff" stroke="#7c3aed" stroke-width="5"/>
  <rect x="850" y="560" width="640" height="80" rx="22" fill="#7c3aed"/>
  <text x="1170" y="614" font-size="33" font-weight="bold" fill="#ffffff" text-anchor="middle">One automation call</text>
  <circle cx="850" cy="560" r="34" fill="#0f172a"/><text x="850" y="573" font-size="38" font-weight="bold" fill="#ffffff" text-anchor="middle">b</text>
  <text x="1170" y="710" font-size="31" fill="#334155" text-anchor="middle">silo DB + DML-only user</text>
  <text x="1170" y="762" font-size="31" fill="#334155" text-anchor="middle">migrations applied</text>
  <text x="1170" y="814" font-size="31" fill="#334155" text-anchor="middle">KMS key · S3 prefix · secret</text>
  <line x1="1490" y1="790" x2="1588" y2="790" stroke="#475569" stroke-width="9" marker-end="url(#arr)"/>
  <rect x="1600" y="560" width="640" height="460" rx="22" fill="#ffffff" stroke="#d97706" stroke-width="5"/>
  <rect x="1600" y="560" width="640" height="80" rx="22" fill="#d97706"/>
  <text x="1920" y="614" font-size="33" font-weight="bold" fill="#ffffff" text-anchor="middle">Encrypted route id</text>
  <circle cx="1600" cy="560" r="34" fill="#0f172a"/><text x="1600" y="573" font-size="38" font-weight="bold" fill="#ffffff" text-anchor="middle">c</text>
  <text x="1920" y="710" font-size="31" fill="#334155" text-anchor="middle">/g/9f3ac1… minted</text>
  <text x="1920" y="762" font-size="31" fill="#334155" text-anchor="middle">registry-mapped</text>
  <text x="1920" y="814" font-size="31" fill="#334155" text-anchor="middle">rotatable anytime</text>
  <line x1="2240" y1="790" x2="2338" y2="790" stroke="#475569" stroke-width="9" marker-end="url(#arr)"/>
  <rect x="2350" y="560" width="640" height="460" rx="22" fill="#ffffff" stroke="#16a34a" stroke-width="5"/>
  <rect x="2350" y="560" width="640" height="80" rx="22" fill="#16a34a"/>
  <text x="2670" y="614" font-size="33" font-weight="bold" fill="#ffffff" text-anchor="middle">Admin invited</text>
  <circle cx="2350" cy="560" r="34" fill="#0f172a"/><text x="2350" y="573" font-size="38" font-weight="bold" fill="#ffffff" text-anchor="middle">d</text>
  <text x="2670" y="710" font-size="31" fill="#334155" text-anchor="middle">logs in via Cropwise Base</text>
  <text x="2670" y="762" font-size="31" fill="#334155" text-anchor="middle">sub → membership (lfg_admin)</text>
  <text x="2670" y="814" font-size="31" fill="#334155" text-anchor="middle">persona setup begins</text>
  <line x1="2990" y1="790" x2="3088" y2="790" stroke="#475569" stroke-width="9" marker-end="url(#arr)"/>
  <rect x="3100" y="560" width="640" height="460" rx="22" fill="#ffffff" stroke="#0891b2" stroke-width="5"/>
  <rect x="3100" y="560" width="640" height="80" rx="22" fill="#0891b2"/>
  <text x="3420" y="614" font-size="33" font-weight="bold" fill="#ffffff" text-anchor="middle">Grower is live</text>
  <circle cx="3100" cy="560" r="34" fill="#0f172a"/><text x="3100" y="573" font-size="38" font-weight="bold" fill="#ffffff" text-anchor="middle">e</text>
  <text x="3420" y="710" font-size="31" fill="#334155" text-anchor="middle">uploads enabled</text>
  <text x="3420" y="762" font-size="31" fill="#334155" text-anchor="middle">zone batch scheduled</text>
  <text x="3420" y="814" font-size="31" fill="#334155" text-anchor="middle">audit log recording</text>
  <rect x="480" y="1300" width="2880" height="96" rx="24" fill="#ffffff" stroke="#cbd5e1" stroke-width="3"/>
  <text x="1920" y="1360" font-size="36" font-weight="bold" fill="#334155" text-anchor="middle">Every step is a catalog-driven, idempotent job — re-running is safe</text>
  <rect x="480" y="1430" width="2880" height="96" rx="24" fill="#ffffff" stroke="#cbd5e1" stroke-width="3"/>
  <text x="1920" y="1490" font-size="36" font-weight="bold" fill="#334155" text-anchor="middle">No human touches a database by hand, ever</text>
  <text x="1920" y="2090" font-size="32" fill="#64748b" text-anchor="middle">LFG Platform · scenario 1 of 10 · RFC v4.1 appendix</text>
</svg>
